<svg xmlns="http://www.w3.org/2000/svg" width="45" height="45" viewBox="0 0 45 45">
  <g id="allcomplaints" transform="translate(-649 -209)">
    <rect id="Rectangle_1634" data-name="Rectangle 1634" width="45" height="45" rx="22.5" transform="translate(649 209)" fill="#ff5757"/>
    <g id="complain" transform="translate(662.005 222)">
      <path id="Subtraction_1" data-name="Subtraction 1" d="M15.938,19.12H6.371a3.184,3.184,0,0,1-3.183-3.185V7.648H2.555A2.554,2.554,0,0,1,0,5.1V2.229A2.124,2.124,0,0,1,1.914,0H15.953a3.182,3.182,0,0,1,3.17,3.185v12.75A3.188,3.188,0,0,1,15.938,19.12Zm-8.363-5.1a.639.639,0,0,0,0,1.278l.061,0h4.182l.061,0a.647.647,0,0,0,.544-.3.636.636,0,0,0,0-.675.644.644,0,0,0-.542-.3.631.631,0,0,0-.063,0H7.639C7.618,14.022,7.6,14.02,7.575,14.02Zm.075-3.188a.64.64,0,0,0,0,1.273H15.3l.061,0a.64.64,0,1,0,0-1.279l-.061,0ZM7.59,7.645a.64.64,0,0,0,0,1.279l.061,0H15.3l.061,0a.64.64,0,1,0,0-1.279l-.061,0H7.651ZM2.231,1.272a.957.957,0,0,0-.956.956V5.1A1.281,1.281,0,0,0,2.555,6.375l.633-.006V2.229A.958.958,0,0,0,2.231,1.272ZM8.924,3.824a.639.639,0,0,0,0,1.272h4.464l.063,0a.639.639,0,0,0,.542-.976.645.645,0,0,0-.543-.3l-.061,0Z" transform="translate(-0.005 0)" fill="#fff"/>
    </g>
  </g>
</svg>
