<svg xmlns="http://www.w3.org/2000/svg" width="45" height="45" viewBox="0 0 45 45">
  <g id="allclients" transform="translate(-649 -209)">
    <rect id="Rectangle_1634" data-name="Rectangle 1634" width="45" height="45" rx="22.5" transform="translate(649 209)" fill="#47b0ec"/>
    <path id="clerk-with-tie" d="M26.018,7.642c-.319,1.221-1.065,1.49-1.463,1.544a8.054,8.054,0,0,1-1.322,1.994,2.633,2.633,0,0,1-.832.5,3.668,3.668,0,0,1-2.7,0,2.631,2.631,0,0,1-.832-.5A8.05,8.05,0,0,1,17.55,9.186c-.4-.054-1.143-.323-1.463-1.544a1.943,1.943,0,0,1,.13-1.583,1.235,1.235,0,0,1,.38-.376c0-.13.006-.294.021-.479a2.245,2.245,0,0,1-.156-2.135,1.9,1.9,0,0,1,1.79-1.384A3.1,3.1,0,0,1,19.21.634,3.7,3.7,0,0,1,21.334,0,4.792,4.792,0,0,1,24.17.992C25.6,2.044,25.476,4.378,25.441,4.8a6.324,6.324,0,0,1,.067.881,1.235,1.235,0,0,1,.38.376A1.944,1.944,0,0,1,26.018,7.642Zm4.176,9.1V20.05a.469.469,0,0,1-.469.469H12.38a.469.469,0,0,1-.469-.469V16.737a3.284,3.284,0,0,1,2.074-3.064l4.1-1.642a.469.469,0,0,1,.616.276l1.032,2.852.2-.587-.325-.794a.469.469,0,0,1,.434-.647h2a.469.469,0,0,1,.434.647l-.325.794.2.587L23.4,12.308a.469.469,0,0,1,.616-.276l4.1,1.642A3.284,3.284,0,0,1,30.194,16.737Zm-2.5.36a.469.469,0,0,0-.469-.469H24.075a.469.469,0,0,0-.469.469v1.464a.469.469,0,0,0,.469.469h3.151a.469.469,0,0,0,.469-.469Z" transform="translate(650.089 221)" fill="#fff"/>
  </g>
</svg>
