<svg xmlns="http://www.w3.org/2000/svg" width="45" height="45" viewBox="0 0 45 45">
  <g id="allqueries" transform="translate(-649 -209)">
    <rect id="Rectangle_1634" data-name="Rectangle 1634" width="45" height="45" rx="22.5" transform="translate(649 209)" fill="#f75353"/>
    <g id="Question_2_" transform="translate(661 221)">
      <path id="Path_155782" data-name="Path 155782" d="M276.83,272a4.83,4.83,0,1,0,4.83,4.83A4.83,4.83,0,0,0,276.83,272Zm-.6,6.891-2.061-2.061.854-.854,1.207,1.207,2.415-2.415.854.854Z" transform="translate(-261.053 -261.053)" fill="#fff"/>
      <path id="Path_155783" data-name="Path 155783" d="M9.136,0A7.926,7.926,0,0,0,1.288,7.929a7.753,7.753,0,0,0,1.889,5.1L0,15.777H9.136c.207,0,.405-.038.609-.053A6.041,6.041,0,0,1,15.777,9.74a5.974,5.974,0,0,1,.963.1,7.836,7.836,0,0,0,.244-1.909A7.926,7.926,0,0,0,9.136,0Zm.6,11.551H8.532V10.344H9.74Zm.3-3.865a.608.608,0,0,0-.3.524v.927H8.532V8.209a1.817,1.817,0,0,1,.9-1.568.6.6,0,1,0-.9-.524H7.325a1.811,1.811,0,1,1,2.717,1.568Z" fill="#fff"/>
    </g>
  </g>
</svg>
