<svg xmlns="http://www.w3.org/2000/svg" width="45" height="45" viewBox="0 0 45 45">
  <g id="allreviews" transform="translate(-649 -209)">
    <rect id="Rectangle_1634" data-name="Rectangle 1634" width="45" height="45" rx="22.5" transform="translate(649 209)" fill="#da7de8"/>
    <g id="favorite" transform="translate(661 183.011)">
      <path id="Path_155670" data-name="Path 155670" d="M18.266,39.989H1.8a1.805,1.805,0,0,0-1.8,1.8V51.983a1.805,1.805,0,0,0,1.8,1.8h.706v1.641a1.478,1.478,0,0,0,.869,1.357,1.5,1.5,0,0,0,.628.139,1.482,1.482,0,0,0,.967-.362l.033-.03,2.777-2.744H18.266a1.805,1.805,0,0,0,1.8-1.8V41.792A1.805,1.805,0,0,0,18.266,39.989ZM14.54,46.263l-1.722,1.7a.2.2,0,0,0-.056.172l.407,2.4a.642.642,0,0,1-.154.544.627.627,0,0,1-.756.129L10.126,50.07a.2.2,0,0,0-.184,0L7.822,51.2a.642.642,0,0,1-.57.023.628.628,0,0,1-.356-.675l.409-2.413a.2.2,0,0,0-.056-.172l-1.722-1.7a.642.642,0,0,1-.193-.534.627.627,0,0,1,.531-.544l2.387-.351a.2.2,0,0,0,.148-.108l1.063-2.177a.642.642,0,0,1,.449-.354.627.627,0,0,1,.684.341l1.069,2.19a.2.2,0,0,0,.148.108l2.387.351a.628.628,0,0,1,.531.544.642.642,0,0,1-.193.534Z" fill="#fff"/>
    </g>
  </g>
</svg>
