<svg xmlns="http://www.w3.org/2000/svg" width="45" height="45" viewBox="0 0 45 45">
  <g id="revenue" transform="translate(-649 -209)">
    <rect id="Rectangle_1634" data-name="Rectangle 1634" width="45" height="45" rx="22.5" transform="translate(649 209)" fill="#3edd8e"/>
    <g id="growth" transform="translate(660 219)">
      <path id="Path_254941" data-name="Path 254941" d="M3.836,15.841A8.36,8.36,0,0,0,6.06,17.26L10.3,14.6a2.263,2.263,0,0,1,2.789.316l1.427,1.427a8.484,8.484,0,1,0-10.684-.5ZM9.88,10.25H9.12a2.122,2.122,0,0,1-.37-4.212V5.25a.75.75,0,0,1,1.5,0V6h1a.75.75,0,0,1,0,1.5H9.12a.625.625,0,0,0,0,1.25h.76a2.122,2.122,0,0,1,.37,4.212v.787a.75.75,0,0,1-1.5,0V13h-1a.75.75,0,0,1,0-1.5H9.88a.625.625,0,0,0,0-1.25Z" fill="#fff"/>
      <path id="Path_254942" data-name="Path 254942" d="M23,12H19a1,1,0,0,0-.707,1.707L19.586,15,15.5,19.086l-3.293-3.293a1,1,0,0,0-1.233-.143l-10.5,6.5A1,1,0,0,0,1,24a.989.989,0,0,0,.525-.15l9.826-6.083,3.44,3.44a1,1,0,0,0,1.414,0L21,16.414l1.293,1.293A1,1,0,0,0,24,17V13a1,1,0,0,0-1-1Z" fill="#fff"/>
    </g>
  </g>
</svg>
