<svg xmlns="http://www.w3.org/2000/svg" width="45" height="45" viewBox="0 0 45 45">
  <g id="allqueries" transform="translate(-649 -209)">
    <rect id="Rectangle_1634" data-name="Rectangle 1634" width="45" height="45" rx="22.5" transform="translate(649 209)" fill="#ff6969"/>
    <g id="Question_2_" transform="translate(662.001 222)">
      <path id="Path_155782" data-name="Path 155782" d="M276.367,272a4.367,4.367,0,1,0,4.367,4.367A4.367,4.367,0,0,0,276.367,272Zm-.546,6.23-1.864-1.863.772-.772,1.092,1.092L278,274.5l.772.772Z" transform="translate(-262.102 -262.102)" fill="#fff"/>
      <path id="Path_155783" data-name="Path 155783" d="M8.26,0a7.167,7.167,0,0,0-7.1,7.169,7.01,7.01,0,0,0,1.708,4.616L0,14.264H8.26c.187,0,.366-.034.551-.048a5.462,5.462,0,0,1,5.453-5.41,5.4,5.4,0,0,1,.871.088,7.085,7.085,0,0,0,.221-1.726A7.167,7.167,0,0,0,8.26,0Zm.546,10.444H7.714V9.352H8.806ZM9.08,6.949a.55.55,0,0,0-.273.473V8.26H7.714V7.422A1.643,1.643,0,0,1,8.533,6a.546.546,0,1,0-.818-.473H6.623A1.637,1.637,0,1,1,9.08,6.949Z" fill="#fff"/>
    </g>
  </g>
</svg>
