<svg xmlns="http://www.w3.org/2000/svg" width="106" height="106" viewBox="0 0 106 106">
  <g id="camera" transform="translate(-452 -192)">
    <rect id="Rectangle_2686" data-name="Rectangle 2686" width="106" height="106" rx="16" transform="translate(452 192)" fill="#ebf8ff"/>
    <g id="photo-camera-interface-symbol-for-button_3_" data-name="photo-camera-interface-symbol-for-button (3)" transform="translate(487 226.64)">
      <path id="Path_155635" data-name="Path 155635" d="M23.83,20.463a5.811,5.811,0,1,1-5.812-5.812A5.818,5.818,0,0,1,23.83,20.463ZM36.037,12.21V28.717A3.985,3.985,0,0,1,32.052,32.7H3.985A3.985,3.985,0,0,1,0,28.717V12.21A3.985,3.985,0,0,1,3.985,8.225h4.9V6.847A3.486,3.486,0,0,1,12.373,3.36H23.664A3.486,3.486,0,0,1,27.15,6.847V8.224h4.9A3.986,3.986,0,0,1,36.037,12.21Zm-9.218,8.253a8.8,8.8,0,1,0-8.8,8.8A8.811,8.811,0,0,0,26.819,20.463Z" transform="translate(0 0)" fill="#00a2ff"/>
    </g>
  </g>
</svg>
