<svg xmlns="http://www.w3.org/2000/svg" width="45" height="45" viewBox="0 0 45 45">
  <g id="client" transform="translate(-649 -209)">
    <rect id="Rectangle_1634" data-name="Rectangle 1634" width="45" height="45" rx="22.5" transform="translate(649 209)" fill="#e68df3"/>
    <path id="clerk-with-tie" d="M26.722,8.023c-.335,1.282-1.118,1.565-1.536,1.622A8.456,8.456,0,0,1,23.8,11.738a2.764,2.764,0,0,1-.873.529,3.851,3.851,0,0,1-2.832,0,2.762,2.762,0,0,1-.873-.529,8.452,8.452,0,0,1-1.388-2.093c-.418-.057-1.2-.339-1.536-1.622a2.04,2.04,0,0,1,.137-1.662,1.3,1.3,0,0,1,.4-.395c0-.137.006-.308.022-.5a2.357,2.357,0,0,1-.164-2.242,2,2,0,0,1,1.879-1.453,3.258,3.258,0,0,1,1.007-1.1A3.882,3.882,0,0,1,21.8,0a5.031,5.031,0,0,1,2.978,1.041c1.5,1.1,1.371,3.555,1.334,4a6.639,6.639,0,0,1,.07.925,1.3,1.3,0,0,1,.4.395A2.041,2.041,0,0,1,26.722,8.023Zm4.385,9.549v3.478a.493.493,0,0,1-.493.493H12.4a.493.493,0,0,1-.493-.493V17.572a3.448,3.448,0,0,1,2.178-3.217L18.4,12.632a.493.493,0,0,1,.646.29l1.083,2.995.214-.617L20,14.466a.493.493,0,0,1,.456-.679h2.1a.493.493,0,0,1,.456.679l-.341.834.214.617,1.083-2.995a.493.493,0,0,1,.646-.29l4.309,1.723A3.448,3.448,0,0,1,31.107,17.572Zm-2.623.378a.493.493,0,0,0-.493-.493H24.682a.493.493,0,0,0-.493.493v1.537a.493.493,0,0,0,.493.493H27.99a.493.493,0,0,0,.493-.493V17.951Z" transform="translate(650.089 221)" fill="#fff"/>
  </g>
</svg>
