<svg xmlns="http://www.w3.org/2000/svg" width="17.678" height="18.258" viewBox="0 0 17.678 18.258">
  <g id="clients" transform="translate(-66.25 -94.25)">
    <g id="profile-2user" transform="translate(65.016 93.308)">
      <path id="Vector" d="M3.891,7.5a1.538,1.538,0,0,0-.279,0,3.76,3.76,0,1,1,.279,0Z" transform="translate(3.857 1.692)" fill="none" stroke="#dee8ff" stroke-linecap="round" stroke-linejoin="round" stroke-width="1.5"/>
      <path id="Vector-2" data-name="Vector" d="M.11,0A2.959,2.959,0,0,1,3.071,2.961,2.965,2.965,0,0,1,.22,5.922a.955.955,0,0,0-.22,0" transform="translate(13.772 3.384)" fill="none" stroke="#dee8ff" stroke-linecap="round" stroke-linejoin="round" stroke-width="1.5"/>
      <path id="Vector-3" data-name="Vector" d="M1.535,1.161c-2.047,1.37-2.047,3.6,0,4.966a8.261,8.261,0,0,0,8.468,0c2.047-1.37,2.047-3.6,0-4.966A8.3,8.3,0,0,0,1.535,1.161Z" transform="translate(1.984 11.156)" fill="none" stroke="#dee8ff" stroke-linecap="round" stroke-linejoin="round" stroke-width="1.5"/>
      <path id="Vector-4" data-name="Vector" d="M0,5.076A4.092,4.092,0,0,0,1.658,4.34a2.143,2.143,0,0,0,0-3.612A4.207,4.207,0,0,0,.025,0" transform="translate(15.514 11.843)" fill="none" stroke="#dee8ff" stroke-linecap="round" stroke-linejoin="round" stroke-width="1.5"/>
    </g>
  </g>
</svg>
