<svg id="close" xmlns="http://www.w3.org/2000/svg" width="12.67" height="12.67" viewBox="0 0 12.67 12.67">
  <path id="Path_4821" data-name="Path 4821" d="M6.335,12.67A6.335,6.335,0,1,1,12.67,6.335,6.342,6.342,0,0,1,6.335,12.67ZM6.335.9a5.43,5.43,0,1,0,5.43,5.43A5.436,5.436,0,0,0,6.335.9Zm0,0" fill="#0c101a"/>
  <path id="Path_4822" data-name="Path 4822" d="M151.264,151.718a.451.451,0,0,1-.32-.133l-4.525-4.525a.452.452,0,0,1,.64-.64l4.525,4.525a.453.453,0,0,1-.32.772Zm0,0" transform="translate(-142.667 -142.668)" fill="#0c101a"/>
  <path id="Path_4823" data-name="Path 4823" d="M146.738,151.717a.453.453,0,0,1-.32-.772l4.525-4.525a.452.452,0,0,1,.64.64l-4.525,4.525A.451.451,0,0,1,146.738,151.717Zm0,0" transform="translate(-142.666 -142.667)" fill="#0c101a"/>
</svg>
