<svg xmlns="http://www.w3.org/2000/svg" width="45" height="45" viewBox="0 0 45 45">
  <g id="compaints" transform="translate(-649 -209)">
    <rect id="Rectangle_1634" data-name="Rectangle 1634" width="45" height="45" rx="22.5" transform="translate(649 209)" fill="#fb7878"/>
    <g id="complain" transform="translate(662.005 222)">
      <path id="Subtraction_1" data-name="Subtraction 1" d="M15.265,18.312H6.1a3.049,3.049,0,0,1-3.049-3.05V7.325H2.447A2.446,2.446,0,0,1,0,4.881V2.134A2.034,2.034,0,0,1,1.833,0H15.279a3.048,3.048,0,0,1,3.036,3.05V15.262A3.054,3.054,0,0,1,15.265,18.312Zm-8.01-4.884a.612.612,0,0,0,0,1.224l.059,0h4.006l.058,0a.62.62,0,0,0,.521-.289.609.609,0,0,0,0-.646.617.617,0,0,0-.519-.289.6.6,0,0,0-.061,0H7.316C7.3,13.429,7.276,13.428,7.255,13.428Zm.072-3.054a.613.613,0,0,0,0,1.22h7.325l.058,0a.613.613,0,1,0,0-1.225l-.059,0ZM7.269,7.322a.613.613,0,0,0,0,1.225l.059,0h7.325l.058,0a.613.613,0,1,0,0-1.225l-.059,0H7.327Zm-5.132-6.1a.917.917,0,0,0-.916.916V4.881A1.226,1.226,0,0,0,2.447,6.106L3.053,6.1V2.134A.917.917,0,0,0,2.137,1.219Zm6.41,2.444a.612.612,0,0,0,0,1.219h4.275l.06,0a.612.612,0,0,0,.519-.935.618.618,0,0,0-.52-.289l-.059,0Z" transform="translate(-0.005 0)" fill="#fff"/>
    </g>
  </g>
</svg>
