<svg xmlns="http://www.w3.org/2000/svg" width="13.035" height="13.038" viewBox="0 0 13.035 13.038">
  <g id="edit" transform="translate(-2.013 -2.008)">
    <path id="Path_155803" data-name="Path 155803" d="M18.947,2.59a1.956,1.956,0,0,0-2.785,0L14.91,3.861l2.765,2.765,1.252-1.252a1.956,1.956,0,0,0,.02-2.785Z" transform="translate(-4.486)" fill="#00a2ff"/>
    <path id="Path_155804" data-name="Path 155804" d="M9.5,6.27,4.026,11.742a.75.75,0,0,0-.124.17L2.089,15.57a.649.649,0,0,0,.854.893L6.6,14.65a.75.75,0,0,0,.17-.124l5.472-5.472Z" transform="translate(0 -1.483)" fill="#00a2ff"/>
    <path id="Path_155805" data-name="Path 155805" d="M17.522,21.3H11.652a.652.652,0,1,1,0-1.3h5.869a.652.652,0,1,1,0,1.3Z" transform="translate(-3.126 -6.258)" fill="#00a2ff"/>
  </g>
</svg>
