<svg xmlns="http://www.w3.org/2000/svg" width="19.231" height="16.548" viewBox="0 0 19.231 16.548">
  <g id="email" transform="translate(-557.25 -254.75)">
    <path id="Vector" d="M14.088,16.548H5.143C1.878,16.548,0,14.669,0,11.4V5.143C0,1.878,1.878,0,5.143,0h8.945c3.265,0,5.143,1.878,5.143,5.143V11.4C19.231,14.669,17.353,16.548,14.088,16.548ZM5.143,1.342c-2.558,0-3.8,1.243-3.8,3.8V11.4c0,2.558,1.243,3.8,3.8,3.8h8.945c2.558,0,3.8-1.243,3.8-3.8V5.143c0-2.558-1.243-3.8-3.8-3.8Z" transform="translate(557.25 254.75)" fill="#00a2ff"/>
    <path id="Vector-2" data-name="Vector" d="M5.146,4.138a3.325,3.325,0,0,1-2.093-.707L.253,1.195A.668.668,0,0,1,1.085.148l2.8,2.236a2.134,2.134,0,0,0,2.513,0L9.2.148a.66.66,0,0,1,.939.107.66.66,0,0,1-.107.939L7.23,3.431A3.283,3.283,0,0,1,5.146,4.138Z" transform="translate(561.72 260.664)" fill="#00a2ff"/>
  </g>
</svg>
