<svg xmlns="http://www.w3.org/2000/svg" width="21.563" height="18.453" viewBox="0 0 21.563 18.453">
  <g id="eye" transform="translate(-109.455 -190.98)">
    <path id="Vector" d="M4.429,8.858A4.429,4.429,0,1,1,8.858,4.429,4.431,4.431,0,0,1,4.429,8.858Zm0-7.324A2.895,2.895,0,1,0,7.324,4.429,2.9,2.9,0,0,0,4.429,1.534Z" transform="translate(115.812 195.777)" fill="#3f66ff"/>
    <path id="Vector-2" data-name="Vector" d="M10.786,18.453C6.94,18.453,3.309,16.2.813,12.3a6.2,6.2,0,0,1,0-6.137C3.319,2.25,6.951,0,10.786,0s7.467,2.25,9.963,6.158a6.2,6.2,0,0,1,0,6.137C18.253,16.2,14.622,18.453,10.786,18.453Zm0-16.919c-3.3,0-6.465,1.984-8.674,5.452a4.648,4.648,0,0,0,0,4.48c2.209,3.468,5.37,5.452,8.674,5.452s6.465-1.984,8.674-5.452a4.648,4.648,0,0,0,0-4.48C17.251,3.519,14.09,1.534,10.786,1.534Z" transform="translate(109.455 190.98)" fill="#3f66ff"/>
  </g>
</svg>
