<svg xmlns="http://www.w3.org/2000/svg" width="23" height="23" viewBox="0 0 23 23">
  <g id="call" transform="translate(-69 -72)">
    <rect id="Rectangle_15444" data-name="Rectangle 15444" width="23" height="23" transform="translate(69 72)" fill="rgba(255,255,255,0)"/>
    <path id="Path_255019" data-name="Path 255019" d="M10.913,54.251a1,1,0,0,0-1.52,0c-.355.352-.711.7-1.06,1.063a.209.209,0,0,1-.293.054c-.23-.125-.475-.227-.7-.364a11.022,11.022,0,0,1-2.657-2.418,6.3,6.3,0,0,1-.952-1.526.219.219,0,0,1,.054-.281c.355-.343.7-.7,1.051-1.048a1.009,1.009,0,0,0,0-1.555c-.278-.281-.555-.555-.833-.836s-.57-.576-.86-.86a1.012,1.012,0,0,0-1.52,0c-.358.352-.7.714-1.066,1.06A1.73,1.73,0,0,0,.016,48.71,4.946,4.946,0,0,0,.4,50.839a12.935,12.935,0,0,0,2.3,3.824A14.208,14.208,0,0,0,7.4,58.344a6.8,6.8,0,0,0,2.606.758,1.91,1.91,0,0,0,1.639-.624c.3-.34.648-.651.97-.976a1.016,1.016,0,0,0,.006-1.547Q11.77,55.1,10.913,54.251Z" transform="translate(73.994 30.863)" fill="#00ed97"/>
  </g>
</svg>
