<svg xmlns="http://www.w3.org/2000/svg" width="32" height="32" viewBox="0 0 32 32">
  <g id="invoice" transform="translate(-1061 -222)">
    <rect id="Rectangle_4403" data-name="Rectangle 4403" width="32" height="32" rx="8" transform="translate(1061 222)" fill="#fff"/>
    <path id="Subtraction_2" data-name="Subtraction 2" d="M-2214.11-9870.271a.853.853,0,0,1-.561-.214l-1.757-1.573a.1.1,0,0,0-.063-.024.091.091,0,0,0-.061.024l-1.76,1.573a.845.845,0,0,1-.561.214.838.838,0,0,1-.559-.214l-1.762-1.576a.1.1,0,0,0-.061-.022.1.1,0,0,0-.061.022l-1.3,1.146a.831.831,0,0,1-.55.211h-.011a.823.823,0,0,1-.587-.248.822.822,0,0,1-.239-.591v-17.186a.828.828,0,0,1,.208-.559.835.835,0,0,1,.624-.279.825.825,0,0,1,.552.21l1.3,1.146a.094.094,0,0,0,.062.022.093.093,0,0,0,.062-.022l1.762-1.576a.837.837,0,0,1,.559-.214.844.844,0,0,1,.561.214l1.76,1.574a.091.091,0,0,0,.061.024.1.1,0,0,0,.063-.024l1.757-1.574a.844.844,0,0,1,.561-.214.838.838,0,0,1,.559.214l1.762,1.576a.092.092,0,0,0,.061.022.092.092,0,0,0,.061-.022l1.3-1.146a.826.826,0,0,1,.553-.212.829.829,0,0,1,.345.075.819.819,0,0,1,.489.765v17.186a.825.825,0,0,1-.208.559.834.834,0,0,1-.623.28.832.832,0,0,1-.553-.211l-1.3-1.146a.1.1,0,0,0-.062-.022.1.1,0,0,0-.062.022l-1.76,1.576A.854.854,0,0,1-2214.11-9870.271Zm-6.29-6.9a.5.5,0,0,0-.5.5.5.5,0,0,0,.5.5h8.8a.5.5,0,0,0,.5-.5.5.5,0,0,0-.5-.5Zm0-2.864a.5.5,0,0,0-.5.5.5.5,0,0,0,.5.5h8.8a.5.5,0,0,0,.5-.5.5.5,0,0,0-.5-.5Zm0-2.864a.5.5,0,0,0-.5.5.5.5,0,0,0,.5.5h5.8a.5.5,0,0,0,.5-.5.5.5,0,0,0-.5-.5Z" transform="translate(3292.999 10118)" fill="#5db8eb"/>
  </g>
</svg>
