<svg xmlns="http://www.w3.org/2000/svg" width="23" height="23" viewBox="0 0 23 23">
  <g id="mail" transform="translate(-69 -72)">
    <rect id="Rectangle_15444" data-name="Rectangle 15444" width="23" height="23" transform="translate(69 72)" fill="rgba(255,255,255,0)"/>
    <g id="bluemail" transform="translate(73.743 14.173)">
      <path id="Path_155761" data-name="Path 155761" d="M7.886,175.158a2.033,2.033,0,0,1-2.259,0L.09,171.466c-.031-.02-.061-.042-.09-.064v6.049A1.244,1.244,0,0,0,1.244,178.7H12.27a1.244,1.244,0,0,0,1.244-1.244V171.4q-.044.033-.09.064Z" transform="translate(0 -104.308)" fill="#00a2ff"/>
      <path id="Path_155762" data-name="Path 155762" d="M.529,66.5l5.538,3.692a1.241,1.241,0,0,0,1.38,0L12.985,66.5a1.186,1.186,0,0,0,.529-.989,1.245,1.245,0,0,0-1.244-1.244H1.244A1.245,1.245,0,0,0,0,65.51a1.185,1.185,0,0,0,.529.988Z" transform="translate(0 0)" fill="#00a2ff"/>
    </g>
  </g>
</svg>
