<svg xmlns="http://www.w3.org/2000/svg" xmlns:xlink="http://www.w3.org/1999/xlink" width="174.18" height="175.797" viewBox="0 0 174.18 175.797">
  <defs>
    <linearGradient id="linear-gradient" y1="-0.009" x2="1.207" y2="1.324" gradientUnits="objectBoundingBox">
      <stop offset="0" stop-color="#00a2ff"/>
      <stop offset="1" stop-color="#00ed97"/>
    </linearGradient>
  </defs>
  <g id="nostaff" transform="translate(-715 -410)">
    <path id="Path_254963" data-name="Path 254963" d="M125.31,170.18c-19.409,6.808-43.237-34.6-54.229-40.051C49.506,119.426,12.484,122.864,27,98.2,33.717,86.79,47.685,71.334,52.949,62.377c10.634-18.093-10.186-50.54,8.6-60.01C80.255-7.065,96.177,14.264,114.5,21.3c12.142,4.661,25.136,2.356,37.523,4.779,8.519,1.667,15.969,11.24,11.011,20.488-30.7,57.263-4.8,112.068-37.723,123.616" transform="translate(715 410)" fill="#f4f5f8"/>
    <path id="Path_254964" data-name="Path 254964" d="M150.228,129.211c33.663-27.018,29.622-56.608,1.7-50.988C130.406,82.556,126.043,70.21,113.8,51.1,101.245,31.5,72.991,45.907,54.574,34.672,23.41,15.659,22.794,46.49,22.492,67.123,22.192,87.6-4.554,98.851.679,125.187c4.253,21.4,37.3,2.654,69.436,20.925,43.61,24.792,49.547,7.632,80.113-16.9" transform="translate(715 410)" fill="#f7f8fa"/>
    <path id="Path_254965" data-name="Path 254965" d="M43.441,18.947a4.728,4.728,0,0,1-9.449,0,4.728,4.728,0,0,1,9.449,0" transform="translate(715 410)" fill="#00a2ff"/>
    <path id="Path_254966" data-name="Path 254966" d="M48.355,4.584a1.55,1.55,0,1,1-3.024,0,1.55,1.55,0,1,1,3.024,0" transform="translate(715 410)" fill="#00ed97"/>
    <path id="Path_254967" data-name="Path 254967" d="M159.1,141.592a4.576,4.576,0,1,1-4.536-3.969,4.28,4.28,0,0,1,4.536,3.969" transform="translate(715 410)" fill="#00ed97"/>
    <path id="Path_254968" data-name="Path 254968" d="M101.646,170.317c0,3.027-2.877,5.48-6.425,5.48s-6.425-2.453-6.425-5.48,2.876-5.48,6.425-5.48,6.425,2.453,6.425,5.48" transform="translate(715 410)" fill="#00ed97"/>
    <path id="Path_254969" data-name="Path 254969" d="M82.371,165.214a3.8,3.8,0,1,1-3.78-3.4,3.606,3.606,0,0,1,3.78,3.4" transform="translate(715 410)" fill="#00a2ff"/>
    <path id="Union_7" data-name="Union 7" d="M-12795.11,283h.516s12.732,4.888,14.663,7.846c2.061,2.829,3.088,12.859,3.088,12.859s-5.4,3.216-21.1,3.731C-12796.524,301.392-12795.622,292.9-12795.11,283Zm-32.929,20.833s.645-9.26,3.216-12.859c2.318-3.474,14.021-7.717,14.792-8.1h.388a141.329,141.329,0,0,0,2.57,24.565C-12821.864,306.792-12828.039,303.834-12828.039,303.834Zm-32.672-9.131c.387-3.47.774-8.1,2.958-10.928,2.317-3.216,7.462-5.146,11.064-6.689,2.184,6.943,4.373,14.019,6.558,21.091l1.669-16.332-1.415-2.055s0-.516,1.031-2.059c-2.446-.129-5.146-1.672-7.336-2.7a13.067,13.067,0,0,0,.517-4.372c-1.415-1.543-1.544-4.888-1.931-6.818-1.926-2.059-3.342-4.888-2.955-7.717.126-1.028.771-3.47,2.186-3.345-.645-3.47-1.414-9.772,3.216-10.928a6.439,6.439,0,0,1,2.7-.258c-.129-2.059,3.345-2.829,4.631-2.958a13.552,13.552,0,0,1,10.29,2.7c3.346,2.829,4.244,7.33,3.861,11.573a1.76,1.76,0,0,1,1.285.774c-.387,2.571-.516,5.142-.645,6.685v.129a7.32,7.32,0,0,1-.129,1.672,10.575,10.575,0,0,1-1.414,1.93c-.384,1.926-.641,5.271-1.928,6.814a14.135,14.135,0,0,0,.258,3.474,2.037,2.037,0,0,1,.129.512v.129c-2.317,1.156-5.146,2.7-7.722,2.829a10.166,10.166,0,0,1,1.031,2.059c-.516.77-1.031,1.414-1.543,2.188.77,5.4,1.285,10.8,2.059,16.074,1.8-7.2,4.116-14.406,6.3-21.478a14.033,14.033,0,0,1,2.83,1.285v3.86a56.064,56.064,0,0,0,6.046.77c-4.377,1.93-10.036,4.63-11.575,6.947-1.932,2.7-2.964,9.772-3.347,12.859-1.481.128-2.979.194-4.478.194C-12845.545,302.614-12854.644,300.219-12860.711,294.7Zm85.794,7.713c-.383-3.087-1.415-10.03-3.346-12.859-1.54-2.184-7.2-5.017-11.575-6.943a55.972,55.972,0,0,0,6.046-.774v-3.856c1.031-.387,1.8-.9,2.83-1.285,2.188,7.072,4.5,14.273,6.3,21.474.773-5.4,1.289-10.8,2.059-16.074-.515-.77-1.027-1.414-1.543-2.188,0,0,0-.512,1.028-2.055-2.572-.129-5.4-1.8-7.718-2.829V274.9a2.047,2.047,0,0,1,.128-.516,13.563,13.563,0,0,0,.258-3.47c-1.286-1.543-1.544-4.888-1.927-6.818-.387-.641-.9-1.156-1.418-1.926a7.56,7.56,0,0,1-.125-1.672v-.129c-.133-1.672-.258-4.118-.645-6.689a1.42,1.42,0,0,1,1.285-.77c-.383-4.243.516-8.615,3.86-11.573a13.043,13.043,0,0,1,10.291-2.7c1.414.129,4.76.9,4.631,2.958a6.447,6.447,0,0,1,2.7.258c4.5,1.157,3.861,7.459,3.217,10.932,1.415-.129,2.06,2.313,2.185,3.345.387,2.829-1.028,5.658-2.958,7.717-.384,1.926-.513,5.271-1.928,6.814a12.33,12.33,0,0,0,.517,4.372c-2.188,1.028-4.764,2.575-7.336,2.7a10.166,10.166,0,0,1,1.031,2.059l-1.418,2.059,2.059,16.332c2.189-7.076,4.374-14.148,6.563-21.091,3.6,1.672,8.617,3.6,11.06,6.685,2.061,2.7,2.446,7.459,2.959,10.932-6.067,5.516-15.159,7.908-24.445,7.907C-12771.83,302.61-12773.378,302.544-12774.917,302.416Zm-44.118-23.275c-.512-9.256-1.028-19.161,2.059-28.034,1.416-4.114,3.986-8.1,8.1-10.03s11.322-2.059,13.893,2.442c8.105-2.829,8.875,12.089,9.133,16.719a161.4,161.4,0,0,1-.258,19.419,106.24,106.24,0,0,1-13.136.6C-12807.293,280.253-12816.1,279.836-12819.035,279.14Zm5.146-14.66a3.252,3.252,0,0,0,2.571,1.93c.773,5.017,3.861,11.831,9.778,11.831s8.875-6.814,9.645-11.7c1.158,0,2.314-1.285,2.959-2.829a3.814,3.814,0,0,0,.129-2.059c-4.5,1.285-7.718-5.4-8.876-8.744C-12801.285,260.882-12810.931,263.582-12813.889,264.481Z" transform="translate(13604.428 225.527)" fill="url(#linear-gradient)"/>
  </g>
</svg>
