<svg xmlns="http://www.w3.org/2000/svg" width="21.9" height="24.557" viewBox="0 0 21.9 24.557">
  <g id="notification" transform="translate(0.762 0.75)">
    <path id="Vector" d="M0,0V3.81" transform="translate(10.181 5.081)" fill="none" stroke="#0c101a" stroke-linecap="round" stroke-width="1.5"/>
    <path id="Vector-2" data-name="Vector" d="M10.2,0A7.618,7.618,0,0,0,2.583,7.621v2.4a5.941,5.941,0,0,1-.721,2.609L.409,15.058a2.44,2.44,0,0,0,1.373,3.719,26.706,26.706,0,0,0,16.854,0,2.54,2.54,0,0,0,1.373-3.719l-1.453-2.426a5.984,5.984,0,0,1-.721-2.609v-2.4A7.665,7.665,0,0,0,10.2,0Z" fill="none" stroke="#0c101a" stroke-linecap="round" stroke-width="1.5"/>
    <path id="Vector-3" data-name="Vector" d="M7.621,0A3.824,3.824,0,0,1,3.81,3.81,3.817,3.817,0,0,1,1.121,2.689,3.817,3.817,0,0,1,0,0" transform="translate(6.37 19.246)" fill="none" stroke="#0c101a" stroke-width="1.5"/>
  </g>
</svg>
