<svg xmlns="http://www.w3.org/2000/svg" width="19.231" height="19.231" viewBox="0 0 19.231 19.231">
  <g id="password" transform="translate(-109.25 -317.25)">
    <g id="lock" transform="translate(109.25 317.25)">
      <path id="Vector" d="M11.4,8.5a.676.676,0,0,1-.671-.671V6.038c0-2.818-.8-4.7-4.7-4.7s-4.7,1.878-4.7,4.7V7.827A.676.676,0,0,1,.671,8.5.676.676,0,0,1,0,7.827V6.038C0,3.444.626,0,6.038,0s6.038,3.444,6.038,6.038V7.827A.676.676,0,0,1,11.4,8.5Z" transform="translate(3.578)" fill="#00a2ff"/>
      <path id="Vector-2" data-name="Vector" d="M14.088,12.075H5.143C1.2,12.075,0,10.877,0,6.932V5.143C0,1.2,1.2,0,5.143,0h8.945c3.945,0,5.143,1.2,5.143,5.143V6.932C19.231,10.877,18.033,12.075,14.088,12.075ZM5.143,1.342c-3.2,0-3.8.608-3.8,3.8V6.932c0,3.193.6,3.8,3.8,3.8h8.945c3.2,0,3.8-.608,3.8-3.8V5.143c0-3.193-.6-3.8-3.8-3.8Z" transform="translate(0 7.156)" fill="#00a2ff"/>
      <path id="Vector-3" data-name="Vector" d="M.894,1.788a.89.89,0,0,1-.34-.072.923.923,0,0,1-.3-.188A.924.924,0,0,1,0,.893.89.89,0,0,1,.072.554a.923.923,0,0,1,.188-.3.923.923,0,0,1,.3-.188A.9.9,0,0,1,1.53.258a1.033,1.033,0,0,1,.188.3.89.89,0,0,1,.072.34.941.941,0,0,1-.259.635A.941.941,0,0,1,.894,1.788Z" transform="translate(5.143 12.3)" fill="#00a2ff"/>
      <path id="Vector-4" data-name="Vector" d="M.894,1.79A.941.941,0,0,1,.259,1.53.924.924,0,0,1,0,.9.75.75,0,0,1,.072.555,1.033,1.033,0,0,1,.259.26.893.893,0,0,1,1.064.019a.54.54,0,0,1,.17.054A.677.677,0,0,1,1.4.153,1.409,1.409,0,0,1,1.53.26a1.033,1.033,0,0,1,.188.3A.89.89,0,0,1,1.789.9a.924.924,0,0,1-.259.635L1.4,1.638a.677.677,0,0,1-.161.081.54.54,0,0,1-.17.054A1.1,1.1,0,0,1,.894,1.79Z" transform="translate(8.721 12.298)" fill="#00a2ff"/>
      <path id="Vector-5" data-name="Vector" d="M.894,1.79A.924.924,0,0,1,.259,1.53a1.033,1.033,0,0,1-.188-.3A.89.89,0,0,1,0,.9.941.941,0,0,1,.259.26L.394.153A.677.677,0,0,1,.555.072.569.569,0,0,1,.716.019.91.91,0,0,1,1.53.26.924.924,0,0,1,1.789.9a.89.89,0,0,1-.072.34.923.923,0,0,1-.188.3A.941.941,0,0,1,.894,1.79Z" transform="translate(12.299 12.298)" fill="#00a2ff"/>
    </g>
  </g>
</svg>
