<svg xmlns="http://www.w3.org/2000/svg" xmlns:xlink="http://www.w3.org/1999/xlink" width="14.617" height="17.209" viewBox="0 0 14.617 17.209">
  <defs>
    <linearGradient id="linear-gradient" y1="-0.009" x2="1.159" y2="1.163" gradientUnits="objectBoundingBox">
      <stop offset="0" stop-color="#00a2ff"/>
      <stop offset="1" stop-color="#00ed97"/>
    </linearGradient>
  </defs>
  <g id="receipt" transform="translate(-3.011 -1.721)">
    <path id="Vector" d="M2.779,15.228a1.512,1.512,0,0,1,2.4.129l.869,1.161a1.5,1.5,0,0,0,2.521,0l.869-1.161a1.512,1.512,0,0,1,2.4-.129c1.531,1.635,2.779,1.093,2.779-1.2v-9.7C14.626.869,13.817,0,10.565,0h-6.5C.809,0,0,.869,0,4.336v9.687C0,16.32,1.256,16.854,2.779,15.228Z" transform="translate(3.011 1.721)" fill="url(#linear-gradient)"/>
    <path id="Vector-2" data-name="Vector" d="M0,0H6.883" transform="translate(6.883 6.022)" fill="none" stroke="#fff" stroke-linecap="round" stroke-linejoin="round" stroke-width="1.5"/>
    <path id="Vector-3" data-name="Vector" d="M0,0H5.162" transform="translate(7.743 9.464)" fill="none" stroke="#fff" stroke-linecap="round" stroke-linejoin="round" stroke-width="1.5"/>
  </g>
</svg>
