<svg xmlns="http://www.w3.org/2000/svg" width="45" height="45" viewBox="0 0 45 45">
  <g id="review" transform="translate(-649 -209)">
    <rect id="Rectangle_1634" data-name="Rectangle 1634" width="45" height="45" rx="22.5" transform="translate(649 209)" fill="#7acff6"/>
    <g id="favorite" transform="translate(662 184.011)">
      <path id="Path_155670" data-name="Path 155670" d="M16.785,39.989H1.657A1.659,1.659,0,0,0,0,41.646v9.365a1.659,1.659,0,0,0,1.657,1.657h.648v1.508a1.359,1.359,0,0,0,.8,1.247,1.38,1.38,0,0,0,.578.128,1.362,1.362,0,0,0,.889-.333l.03-.028,2.552-2.522h9.633a1.659,1.659,0,0,0,1.657-1.657V41.646A1.659,1.659,0,0,0,16.785,39.989Zm-3.423,5.765-1.583,1.56a.18.18,0,0,0-.051.158l.374,2.2a.59.59,0,0,1-.142.5.577.577,0,0,1-.695.119l-1.96-1.042a.18.18,0,0,0-.169,0L7.188,50.289a.59.59,0,0,1-.524.021.577.577,0,0,1-.327-.62l.376-2.218a.18.18,0,0,0-.051-.158L5.08,45.754a.59.59,0,0,1-.177-.49.577.577,0,0,1,.488-.5l2.194-.322a.18.18,0,0,0,.136-.1l.977-2a.59.59,0,0,1,.413-.325.577.577,0,0,1,.629.313l.983,2.013a.18.18,0,0,0,.136.1l2.194.322a.577.577,0,0,1,.488.5.59.59,0,0,1-.177.49Z" fill="#fff"/>
    </g>
  </g>
</svg>
