<svg xmlns="http://www.w3.org/2000/svg" width="24.552" height="24.552" viewBox="0 0 24.552 24.552">
  <g id="rightarrowgray" transform="translate(-0.25 0.25)">
    <circle id="Ellipse_777" data-name="Ellipse 777" cx="11.5" cy="11.5" r="11.5" transform="translate(1 0.509)" fill="#fff"/>
    <g id="arrow-right_2_" data-name="arrow-right (2)" transform="translate(0.457)">
      <path id="Path_155721" data-name="Path 155721" d="M12.026,0A12.026,12.026,0,1,0,24.052,12.026,12.026,12.026,0,0,0,12.026,0Zm0,22.849A10.823,10.823,0,1,1,22.849,12.026,10.823,10.823,0,0,1,12.026,22.849Zm0,0" transform="translate(0.043)" fill="#1e2330" stroke="#1e2330" stroke-width="0.5"/>
      <path id="Path_155722" data-name="Path 155722" d="M171.658,128.148a.6.6,0,1,0-.792.905l4.293,3.756-4.293,3.756a.6.6,0,1,0,.792.905l4.81-4.209a.6.6,0,0,0,0-.905Zm0,0" transform="translate(-161.041 -120.784)" fill="#1e2330" stroke="#1e2330" stroke-width="0.5"/>
    </g>
  </g>
</svg>
