<svg xmlns="http://www.w3.org/2000/svg" xmlns:xlink="http://www.w3.org/1999/xlink" width="15.836" height="16.967" viewBox="0 0 15.836 16.967">
  <defs>
    <linearGradient id="linear-gradient" x1="0.248" y1="0.046" x2="1" y2="1" gradientUnits="objectBoundingBox">
      <stop offset="0" stop-color="#00a2ff"/>
      <stop offset="1" stop-color="#00ed97"/>
    </linearGradient>
  </defs>
  <g id="lias" transform="translate(-67 -95)">
    <g id="user_34_" data-name="user (34)" transform="translate(51 95)">
      <g id="Group_64651" data-name="Group 64651" transform="translate(16)">
        <path id="Path_155793" data-name="Path 155793" d="M29.108,11.434l-2.474-.5a.566.566,0,0,1-.454-.554V9.816a6.531,6.531,0,0,0,.474-.844,4.9,4.9,0,0,1,.385-.683,3.655,3.655,0,0,0,1.147-1.811,1.693,1.693,0,0,0-.164-1.328,9.99,9.99,0,0,0-.192-2.3,2.5,2.5,0,0,0-.587-1.822,1.754,1.754,0,0,0-1.05-.44A1.82,1.82,0,0,1,25.809.5,3.98,3.98,0,0,0,23.9,0a4.448,4.448,0,0,0-3.939,2.706A6.645,6.645,0,0,0,19.8,4.753l-.016.4a1.8,1.8,0,0,0-.143,1.327,3.642,3.642,0,0,0,1.145,1.811,4.984,4.984,0,0,1,.389.687,6.864,6.864,0,0,0,.477.843v.567a.566.566,0,0,1-.455.554l-2.474.5A3.4,3.4,0,0,0,16,14.76v1.076a1.133,1.133,0,0,0,1.131,1.131H30.7a1.133,1.133,0,0,0,1.131-1.131V14.76A3.4,3.4,0,0,0,29.108,11.434Z" transform="translate(-16)" fill="url(#linear-gradient)"/>
      </g>
    </g>
  </g>
</svg>
