<svg xmlns="http://www.w3.org/2000/svg" xmlns:xlink="http://www.w3.org/1999/xlink" width="17.507" height="19.458" viewBox="0 0 17.507 19.458">
  <defs>
    <linearGradient id="linear-gradient" y1="-0.009" x2="1.159" y2="1.163" gradientUnits="objectBoundingBox">
      <stop offset="0" stop-color="#00a2ff"/>
      <stop offset="1" stop-color="#00ed97"/>
    </linearGradient>
  </defs>
  <g id="selectedsetting" transform="translate(-66 -93)">
    <g id="settings_2_" data-name="settings (2)" transform="translate(64.797 93)">
      <path id="Path_254919" data-name="Path 254919" d="M17.491,11.269l-.36-.208a7.378,7.378,0,0,0,0-2.667l.36-.208a2.434,2.434,0,1,0-2.432-4.216l-.361.208a7.278,7.278,0,0,0-2.31-1.331V2.432a2.432,2.432,0,1,0-4.864,0v.416A7.278,7.278,0,0,0,5.215,4.183l-.362-.21A2.434,2.434,0,1,0,2.421,8.188l.36.208a7.378,7.378,0,0,0,0,2.667l-.36.208a2.434,2.434,0,0,0,2.432,4.216l.361-.208a7.278,7.278,0,0,0,2.311,1.331v.416a2.432,2.432,0,1,0,4.864,0v-.416A7.278,7.278,0,0,0,14.7,15.275l.362.209a2.434,2.434,0,1,0,2.432-4.216Z" fill="url(#linear-gradient)"/>
      <path id="Path_254918" data-name="Path 254918" d="M11.243,8a3.243,3.243,0,1,0,3.243,3.243A3.243,3.243,0,0,0,11.243,8Zm0,4.864a1.621,1.621,0,1,1,1.621-1.621A1.621,1.621,0,0,1,11.243,12.864Z" transform="translate(-1.286 -1.514)" fill="#fff"/>
    </g>
  </g>
</svg>
