<svg xmlns="http://www.w3.org/2000/svg" xmlns:xlink="http://www.w3.org/1999/xlink" width="18.004" height="18.003" viewBox="0 0 18.004 18.003">
  <defs>
    <linearGradient id="linear-gradient" y1="-0.009" x2="1.159" y2="1.163" gradientUnits="objectBoundingBox">
      <stop offset="0" stop-color="#00a2ff"/>
      <stop offset="1" stop-color="#00ed97"/>
    </linearGradient>
  </defs>
  <path id="dashboard" d="M21593.842,10656.844a2,2,0,0,1-2-2v-4a2,2,0,0,1,2-2h4a2,2,0,0,1,2,2v4a2,2,0,0,1-2,2Zm-10,0a2,2,0,0,1-2-2v-4a2,2,0,0,1,2-2h4a2,2,0,0,1,2,2v4a2,2,0,0,1-2,2Zm10-10a2,2,0,0,1-2-2v-4a2,2,0,0,1,2-2h4a2,2,0,0,1,2,2v4a2,2,0,0,1-2,2Zm-10,0a2,2,0,0,1-2-2v-4a2,2,0,0,1,2-2h4a2,2,0,0,1,2,2v4a2,2,0,0,1-2,2Z" transform="translate(-21581.84 -10638.841)" fill="url(#linear-gradient)"/>
</svg>
