<svg xmlns="http://www.w3.org/2000/svg" xmlns:xlink="http://www.w3.org/1999/xlink" width="18.977" height="18.977" viewBox="0 0 18.977 18.977">
  <defs>
    <linearGradient id="linear-gradient" y1="-0.009" x2="1.159" y2="1.163" gradientUnits="objectBoundingBox">
      <stop offset="0" stop-color="#00a2ff"/>
      <stop offset="1" stop-color="#00ed97"/>
    </linearGradient>
  </defs>
  <g id="selectedallclients" transform="translate(-66 -94)">
    <path id="users_1_" data-name="users (1)" d="M5.93,10.279A3.558,3.558,0,1,1,9.488,6.721,3.558,3.558,0,0,1,5.93,10.279Zm5.93,7.907v-.4a5.93,5.93,0,0,0-11.86,0v.4a.791.791,0,0,0,1.581,0v-.4a4.349,4.349,0,0,1,8.7,0v.4a.791.791,0,0,0,1.581,0Zm7.116-3.953a5.535,5.535,0,0,0-9.225-4.125.791.791,0,1,0,1.055,1.178A3.953,3.953,0,0,1,17.4,14.232a.791.791,0,0,0,1.581,0ZM13.837,7.116A3.558,3.558,0,1,1,17.4,3.558a3.558,3.558,0,0,1-3.558,3.558Z" transform="translate(66 94)" fill="url(#linear-gradient)"/>
  </g>
</svg>
