<svg xmlns="http://www.w3.org/2000/svg" xmlns:xlink="http://www.w3.org/1999/xlink" width="14.176" height="18.901" viewBox="0 0 14.176 18.901">
  <defs>
    <linearGradient id="linear-gradient" y1="-0.009" x2="1.159" y2="1.163" gradientUnits="objectBoundingBox">
      <stop offset="0" stop-color="#00a2ff"/>
      <stop offset="1" stop-color="#00ed97"/>
    </linearGradient>
  </defs>
  <g id="selectedreports" transform="translate(-68 -94)">
    <path id="notebook" d="M15.6,2.38V.788a.788.788,0,0,0-1.575,0v.866a3.938,3.938,0,0,0-.788-.079h-.788V.788a.788.788,0,0,0-1.575,0v.788H9.3V.788a.788.788,0,0,0-1.575,0v.788H6.938a3.938,3.938,0,0,0-.788.079V.788a.788.788,0,1,0-1.575,0V2.38A3.921,3.921,0,0,0,3,5.513v9.451A3.942,3.942,0,0,0,6.938,18.9h6.3a3.942,3.942,0,0,0,3.938-3.938V5.513A3.921,3.921,0,0,0,15.6,2.38Z" transform="translate(65 94)" fill="url(#linear-gradient)"/>
    <path id="notebook-2" data-name="notebook" d="M14.026,6.3a.788.788,0,0,1-.788.788h-6.3a.788.788,0,0,1,0-1.575h6.3A.788.788,0,0,1,14.026,6.3Zm0,3.15a.788.788,0,0,1-.788.788h-6.3a.788.788,0,0,1,0-1.575h6.3A.788.788,0,0,1,14.026,9.451Zm-3.15,3.15a.788.788,0,0,1-.788.788H6.938a.788.788,0,0,1,0-1.575h3.15A.788.788,0,0,1,10.875,12.6Z" transform="translate(65 94)" fill="#fff"/>
  </g>
</svg>
