<svg xmlns="http://www.w3.org/2000/svg" xmlns:xlink="http://www.w3.org/1999/xlink" width="17.509" height="16.518" viewBox="0 0 17.509 16.518">
  <defs>
    <linearGradient id="linear-gradient" y1="-0.009" x2="1.159" y2="1.163" gradientUnits="objectBoundingBox">
      <stop offset="0" stop-color="#00a2ff"/>
      <stop offset="1" stop-color="#00ed97"/>
    </linearGradient>
  </defs>
  <g id="setting-2" transform="translate(-301.75 -190.241)">
    <path id="Vector" d="M0,9.029V7.489A1.667,1.667,0,0,1,1.663,5.827c1.584,0,2.231-1.12,1.435-2.494A1.662,1.662,0,0,1,3.71,1.067L5.224.2a1.46,1.46,0,0,1,2,.525l.1.166C8.1,2.265,9.4,2.265,10.194.892l.1-.166a1.46,1.46,0,0,1,2-.525l1.514.866a1.662,1.662,0,0,1,.612,2.266c-.8,1.374-.149,2.494,1.435,2.494a1.667,1.667,0,0,1,1.663,1.662v1.54a1.667,1.667,0,0,1-1.663,1.662c-1.584,0-2.231,1.12-1.435,2.494a1.66,1.66,0,0,1-.612,2.266l-1.514.866a1.46,1.46,0,0,1-2-.525l-.1-.166c-.787-1.374-2.082-1.374-2.879,0l-.1.166a1.46,1.46,0,0,1-2,.525L3.71,15.452A1.662,1.662,0,0,1,3.1,13.185c.8-1.374.149-2.494-1.435-2.494A1.667,1.667,0,0,1,0,9.029Z" transform="translate(301.75 190.241)" fill="url(#linear-gradient)"/>
    <path id="Vector-2" data-name="Vector" d="M5.25,2.625A2.625,2.625,0,1,1,2.625,0,2.625,2.625,0,0,1,5.25,2.625Z" transform="translate(307.875 195.875)" fill="#fff"/>
  </g>
</svg>
