<svg xmlns="http://www.w3.org/2000/svg" width="45" height="45" viewBox="0 0 45 45">
  <g id="subscription" transform="translate(-649 -209)">
    <rect id="Rectangle_1634" data-name="Rectangle 1634" width="45" height="45" rx="22.5" transform="translate(649 209)" fill="#ffa621"/>
    <g id="subscription_1_" data-name="subscription (1)" transform="translate(663 221)">
      <g id="Group_13523" data-name="Group 13523" transform="translate(1 1)">
        <path id="Path_155789" data-name="Path 155789" d="M13.575,1H3.164A1.976,1.976,0,0,0,1,3.164V19.28a.776.776,0,0,0,1.206.647L3.5,19.064a.388.388,0,0,1,.431,0l1.467.978a1.16,1.16,0,0,0,1.29,0l1.466-.978a.388.388,0,0,1,.431,0l1.467.978a1.161,1.161,0,0,0,1.29,0l1.466-.978a.388.388,0,0,1,.431,0l1.294.863a.776.776,0,0,0,1.206-.647V3.164A1.936,1.936,0,0,0,13.575,1Z" transform="translate(-1 -1)" fill="#fff"/>
        <path id="Path_155788" data-name="Path 155788" d="M17.131,14.3c-.2-.071-.381-.138-.55-.2V11.385a1.8,1.8,0,0,1,.863.364.388.388,0,0,0,.524-.572A2.579,2.579,0,0,0,16.58,10.6V9.976a.388.388,0,1,0-.776,0v.655a2.918,2.918,0,0,0-.332.078,1.991,1.991,0,0,0-1.363,1.563,1.739,1.739,0,0,0,.564,1.713,5.085,5.085,0,0,0,1.131.636v3.357a2.244,2.244,0,0,1-1.347-.457.388.388,0,1,0-.427.649,3,3,0,0,0,1.772.582v.692a.388.388,0,1,0,.776,0v-.721a2.418,2.418,0,0,0,2.008-2A2.115,2.115,0,0,0,17.131,14.3Zm-1.978-.928a.97.97,0,0,1-.28-.959,1.226,1.226,0,0,1,.823-.965c.039-.012.071-.014.108-.023v2.339a3.68,3.68,0,0,1-.651-.393Zm2.671,3.219a1.655,1.655,0,0,1-1.241,1.34V14.929l.292.106a1.354,1.354,0,0,1,.949,1.56Z" transform="translate(-8.869 -6.257)" fill="#ffa621" stroke="#ffa621" stroke-width="0.4"/>
      </g>
    </g>
  </g>
</svg>
