<svg xmlns="http://www.w3.org/2000/svg" width="32" height="32" viewBox="0 0 32 32">
  <g id="task" transform="translate(-1061 -222)">
    <rect id="Rectangle_4403" data-name="Rectangle 4403" width="32" height="32" rx="8" transform="translate(1061 222)" fill="#fff"/>
    <g id="clipboard_3_" data-name="clipboard (3)" transform="translate(1070 230)">
      <g id="Group_13311" data-name="Group 13311" transform="translate(0)">
        <path id="Path_155716" data-name="Path 155716" d="M33.664,1.541H30.439a2.3,2.3,0,0,0-4.339,0H22.874a1.541,1.541,0,0,0-1.541,1.541V13.872a1.541,1.541,0,0,0,1.541,1.541H33.664a1.541,1.541,0,0,0,1.541-1.541V3.083A1.541,1.541,0,0,0,33.664,1.541Zm-5.395,0a.771.771,0,1,1-.771.771A.77.77,0,0,1,28.269,1.541ZM26.728,12.331,23.645,9.248l1.091-1.091,1.992,1.992L31.8,5.075l1.091,1.091Z" transform="translate(-21.333)" fill="#fb7878"/>
      </g>
    </g>
  </g>
</svg>
