<svg xmlns="http://www.w3.org/2000/svg" width="18.004" height="18.003" viewBox="0 0 18.004 18.003">
  <g id="unselecteddashboard" transform="translate(-65.998 -93.998)">
    <g id="Group_3" data-name="Group 3" transform="translate(4.157 -0.843)">
      <g id="Union_1" data-name="Union 1" transform="translate(-21520 -10544)" fill="none">
        <path d="M21593.842,10656.844a2,2,0,0,1-2-2v-4a2,2,0,0,1,2-2h4a2,2,0,0,1,2,2v4a2,2,0,0,1-2,2Zm-10,0a2,2,0,0,1-2-2v-4a2,2,0,0,1,2-2h4a2,2,0,0,1,2,2v4a2,2,0,0,1-2,2Zm10-10a2,2,0,0,1-2-2v-4a2,2,0,0,1,2-2h4a2,2,0,0,1,2,2v4a2,2,0,0,1-2,2Zm-10,0a2,2,0,0,1-2-2v-4a2,2,0,0,1,2-2h4a2,2,0,0,1,2,2v4a2,2,0,0,1-2,2Z" stroke="none"/>
        <path d="M 21597.841796875 10655.34375 C 21598.119140625 10655.34375 21598.34375 10655.119140625 21598.34375 10654.84375 L 21598.34375 10650.8427734375 C 21598.34375 10650.5673828125 21598.119140625 10650.3427734375 21597.841796875 10650.3427734375 L 21593.841796875 10650.3427734375 C 21593.56640625 10650.3427734375 21593.341796875 10650.5673828125 21593.341796875 10650.8427734375 L 21593.341796875 10654.84375 C 21593.341796875 10655.119140625 21593.56640625 10655.34375 21593.841796875 10655.34375 L 21597.841796875 10655.34375 M 21587.841796875 10655.34375 C 21588.1171875 10655.34375 21588.341796875 10655.119140625 21588.341796875 10654.84375 L 21588.341796875 10650.8427734375 C 21588.341796875 10650.5673828125 21588.1171875 10650.3427734375 21587.841796875 10650.3427734375 L 21583.83984375 10650.3427734375 C 21583.564453125 10650.3427734375 21583.33984375 10650.5673828125 21583.33984375 10650.8427734375 L 21583.33984375 10654.84375 C 21583.33984375 10655.119140625 21583.564453125 10655.34375 21583.83984375 10655.34375 L 21587.841796875 10655.34375 M 21597.841796875 10645.341796875 C 21598.119140625 10645.341796875 21598.34375 10645.1171875 21598.34375 10644.841796875 L 21598.34375 10640.841796875 C 21598.34375 10640.5654296875 21598.119140625 10640.3408203125 21597.841796875 10640.3408203125 L 21593.841796875 10640.3408203125 C 21593.56640625 10640.3408203125 21593.341796875 10640.5654296875 21593.341796875 10640.841796875 L 21593.341796875 10644.841796875 C 21593.341796875 10645.1171875 21593.56640625 10645.341796875 21593.841796875 10645.341796875 L 21597.841796875 10645.341796875 M 21587.841796875 10645.341796875 C 21588.1171875 10645.341796875 21588.341796875 10645.1171875 21588.341796875 10644.841796875 L 21588.341796875 10640.841796875 C 21588.341796875 10640.5654296875 21588.1171875 10640.3408203125 21587.841796875 10640.3408203125 L 21583.83984375 10640.3408203125 C 21583.564453125 10640.3408203125 21583.33984375 10640.5654296875 21583.33984375 10640.841796875 L 21583.33984375 10644.841796875 C 21583.33984375 10645.1171875 21583.564453125 10645.341796875 21583.83984375 10645.341796875 L 21587.841796875 10645.341796875 M 21597.841796875 10656.84375 L 21593.841796875 10656.84375 C 21592.736328125 10656.84375 21591.841796875 10655.94921875 21591.841796875 10654.84375 L 21591.841796875 10650.8427734375 C 21591.841796875 10649.7373046875 21592.736328125 10648.8427734375 21593.841796875 10648.8427734375 L 21597.841796875 10648.8427734375 C 21598.94921875 10648.8427734375 21599.84375 10649.7373046875 21599.84375 10650.8427734375 L 21599.84375 10654.84375 C 21599.84375 10655.94921875 21598.94921875 10656.84375 21597.841796875 10656.84375 Z M 21587.841796875 10656.84375 L 21583.83984375 10656.84375 C 21582.734375 10656.84375 21581.83984375 10655.94921875 21581.83984375 10654.84375 L 21581.83984375 10650.8427734375 C 21581.83984375 10649.7373046875 21582.734375 10648.8427734375 21583.83984375 10648.8427734375 L 21587.841796875 10648.8427734375 C 21588.947265625 10648.8427734375 21589.841796875 10649.7373046875 21589.841796875 10650.8427734375 L 21589.841796875 10654.84375 C 21589.841796875 10655.94921875 21588.947265625 10656.84375 21587.841796875 10656.84375 Z M 21597.841796875 10646.841796875 L 21593.841796875 10646.841796875 C 21592.736328125 10646.841796875 21591.841796875 10645.9482421875 21591.841796875 10644.841796875 L 21591.841796875 10640.841796875 C 21591.841796875 10639.7412109375 21592.736328125 10638.8408203125 21593.841796875 10638.8408203125 L 21597.841796875 10638.8408203125 C 21598.94921875 10638.8408203125 21599.84375 10639.7412109375 21599.84375 10640.841796875 L 21599.84375 10644.841796875 C 21599.84375 10645.9482421875 21598.94921875 10646.841796875 21597.841796875 10646.841796875 Z M 21587.841796875 10646.841796875 L 21583.83984375 10646.841796875 C 21582.734375 10646.841796875 21581.83984375 10645.9482421875 21581.83984375 10644.841796875 L 21581.83984375 10640.841796875 C 21581.83984375 10639.7412109375 21582.734375 10638.8408203125 21583.83984375 10638.8408203125 L 21587.841796875 10638.8408203125 C 21588.947265625 10638.8408203125 21589.841796875 10639.7412109375 21589.841796875 10640.841796875 L 21589.841796875 10644.841796875 C 21589.841796875 10645.9482421875 21588.947265625 10646.841796875 21587.841796875 10646.841796875 Z" stroke="none" fill="#fff"/>
      </g>
    </g>
  </g>
</svg>
