<svg xmlns="http://www.w3.org/2000/svg" width="18.977" height="18.977" viewBox="0 0 18.977 18.977">
  <g id="unselectedallclients" transform="translate(-66 -94)">
    <path id="users_1_" data-name="users (1)" d="M5.93,10.279A3.558,3.558,0,1,1,9.488,6.721,3.558,3.558,0,0,1,5.93,10.279Zm0-5.535A1.977,1.977,0,1,0,7.907,6.721,1.977,1.977,0,0,0,5.93,4.744Zm5.93,13.442v-.4a5.93,5.93,0,0,0-11.86,0v.4a.791.791,0,0,0,1.581,0v-.4a4.349,4.349,0,0,1,8.7,0v.4a.791.791,0,0,0,1.581,0Zm7.116-3.953a5.535,5.535,0,0,0-9.225-4.125.791.791,0,1,0,1.055,1.178A3.953,3.953,0,0,1,17.4,14.232a.791.791,0,0,0,1.581,0ZM13.837,7.116A3.558,3.558,0,1,1,17.4,3.558a3.558,3.558,0,0,1-3.558,3.558Zm0-5.535a1.977,1.977,0,1,0,1.977,1.977A1.977,1.977,0,0,0,13.837,1.581Z" transform="translate(66 94)" fill="#fff"/>
  </g>
</svg>
