<svg xmlns="http://www.w3.org/2000/svg" width="13.705" height="18.273" viewBox="0 0 13.705 18.273">
  <g id="unselectedaccounts" transform="translate(-67.999 -94)">
    <g id="user_3_" data-name="user (3)" transform="translate(64.999 94)">
      <path id="Path_254916" data-name="Path 254916" d="M10.568,9.137A4.568,4.568,0,1,0,6,4.568a4.568,4.568,0,0,0,4.568,4.568Zm0-7.614A3.046,3.046,0,1,1,7.523,4.568a3.046,3.046,0,0,1,3.046-3.046Z" transform="translate(-0.716)" fill="#fff"/>
      <path id="Path_254917" data-name="Path 254917" d="M9.853,14A6.86,6.86,0,0,0,3,20.853a.761.761,0,1,0,1.523,0,5.33,5.33,0,0,1,10.66,0,.761.761,0,0,0,1.523,0A6.86,6.86,0,0,0,9.853,14Z" transform="translate(0 -3.34)" fill="#fff"/>
    </g>
  </g>
</svg>
