<svg xmlns="http://www.w3.org/2000/svg" width="14.176" height="18.901" viewBox="0 0 14.176 18.901">
  <g id="unselectedreports" transform="translate(-68 -94)">
    <path id="notebook" d="M15.6,2.38V.788a.788.788,0,0,0-1.575,0v.866a3.938,3.938,0,0,0-.788-.079h-.788V.788a.788.788,0,0,0-1.575,0v.788H9.3V.788a.788.788,0,0,0-1.575,0v.788H6.938a3.938,3.938,0,0,0-.788.079V.788a.788.788,0,1,0-1.575,0V2.38A3.921,3.921,0,0,0,3,5.513v9.451A3.942,3.942,0,0,0,6.938,18.9h6.3a3.942,3.942,0,0,0,3.938-3.938V5.513A3.921,3.921,0,0,0,15.6,2.38Zm0,12.583a2.363,2.363,0,0,1-2.363,2.363h-6.3a2.363,2.363,0,0,1-2.363-2.363V5.513A2.363,2.363,0,0,1,6.938,3.15h6.3A2.363,2.363,0,0,1,15.6,5.513ZM14.026,6.3a.788.788,0,0,1-.788.788h-6.3a.788.788,0,0,1,0-1.575h6.3A.788.788,0,0,1,14.026,6.3Zm0,3.15a.788.788,0,0,1-.788.788h-6.3a.788.788,0,0,1,0-1.575h6.3A.788.788,0,0,1,14.026,9.451Zm-3.15,3.15a.788.788,0,0,1-.788.788H6.938a.788.788,0,0,1,0-1.575h3.15A.788.788,0,0,1,10.875,12.6Z" transform="translate(65 94)" fill="#fff"/>
  </g>
</svg>
