<svg xmlns="http://www.w3.org/2000/svg" width="19.694" height="16.038" viewBox="0 0 19.694 16.038">
  <g id="unselectedstaffs" transform="translate(-65 -95)">
    <g id="Group_4" data-name="Group 4" transform="translate(-0.999 -1)">
      <g id="group_3_" data-name="group (3)" transform="translate(65.999 96)">
        <g id="Path_155790" data-name="Path 155790" transform="translate(-2.619 -4.57)" fill="none">
          <path d="M9.466,12.074A3.752,3.752,0,1,0,5.714,8.322a3.752,3.752,0,0,0,3.752,3.752Z" stroke="none"/>
          <path d="M 9.466670036315918 10.57354068756104 C 10.06783103942871 10.5733118057251 10.63295841217041 10.3390941619873 11.05806064605713 9.913961410522461 C 11.48337078094482 9.488631248474121 11.71757030487061 8.923131942749023 11.7175407409668 8.321551322937012 C 11.7175407409668 7.720161437988281 11.48331069946289 7.154751777648926 11.05799102783203 6.72948169708252 C 10.63264083862305 6.304171562194824 10.06713104248047 6.069971561431885 9.465550422668457 6.070001602172852 C 8.864160537719727 6.070001602172852 8.298750877380371 6.304231643676758 7.873480796813965 6.729551315307617 C 7.44817066192627 7.154901504516602 7.21397066116333 7.720411777496338 7.214000701904297 8.320591926574707 C 7.215160369873047 9.561639785766602 8.225678443908691 10.57221412658691 9.466670036315918 10.57354068756104 M 9.465770721435547 12.07354164123535 C 7.394560813903809 12.07173156738281 5.715930938720703 10.39320182800293 5.714000701904297 8.321991920471191 C 5.71388053894043 6.249861717224121 7.393640518188477 4.570001602172852 9.465550422668457 4.570001602172852 C 11.53768062591553 4.569881439208984 13.2175407409668 6.249641418457031 13.2175407409668 8.321551322937012 C 13.21766090393066 10.39368152618408 11.53790092468262 12.07354164123535 9.465770721435547 12.07354164123535 Z" stroke="none" fill="#fff"/>
        </g>
        <g id="Path_155791" data-name="Path 155791" transform="translate(-1 -9.036)" fill="none">
          <path d="M12.754,19.639A6.85,6.85,0,0,0,1,24.417a.656.656,0,0,0,.656.656H14.038a.656.656,0,0,0,.656-.656,6.609,6.609,0,0,0-.318-2.051A6.8,6.8,0,0,0,12.754,19.639Z" stroke="none"/>
          <path d="M 7.847774028778076 19.07037353515625 C 7.155424118041992 19.07037353515625 6.47822380065918 19.20296478271484 5.834983825683594 19.46446418762207 C 4.075026512145996 20.1799488067627 2.855850219726562 21.74232482910156 2.566262245178223 23.57367324829102 L 13.12813091278076 23.57366561889648 C 13.08706855773926 23.32099914550781 13.02694129943848 23.07133293151855 12.94801330566406 22.82636451721191 L 12.94312381744385 22.81089401245117 C 12.69654369354248 22.01626396179199 12.2595043182373 21.28108406066895 11.68019390106201 20.68579483032227 C 10.6793737411499 19.65924453735352 9.282623291015625 19.07044410705566 7.847953796386719 19.07037353515625 L 7.847774028778076 19.07037353515625 M 7.848161220550537 17.57037353515625 C 9.660123825073242 17.57046890258789 11.43925189971924 18.28989791870117 12.75423431396484 19.6386833190918 C 13.50225353240967 20.40733337402344 14.05787372589111 21.34199333190918 14.37573432922363 22.36635398864746 C 14.58921432495117 23.02893447875977 14.69666385650635 23.72108459472656 14.69412422180176 24.41719436645508 C 14.69412422180176 24.77975463867188 14.40021419525146 25.07366371154785 14.03765392303467 25.07366371154785 L 1.65648365020752 25.07367324829102 C 1.293913841247559 25.07367324829102 1.000003814697266 24.77975463867188 1.000003814697266 24.41719436645508 C 1.001254081726074 21.63148498535156 2.68946361541748 19.12401390075684 5.270073890686035 18.07490348815918 C 6.105653762817383 17.73521041870117 6.980531692504883 17.57032775878906 7.848161220550537 17.57037353515625 Z" stroke="none" fill="#fff"/>
        </g>
        <g id="Ellipse_777" data-name="Ellipse 777" transform="translate(11.981 2.252)" fill="none" stroke="#fff" stroke-width="1.5">
          <circle cx="2.79" cy="2.79" r="2.79" stroke="none"/>
          <circle cx="2.79" cy="2.79" r="2.04" fill="none"/>
        </g>
        <g id="Path_155792" data-name="Path 155792" transform="translate(-7.422 -9.07)" fill="none">
          <path d="M22.193,17.67a4.912,4.912,0,0,0-2.5.694c.142.127.286.253.421.391a8.132,8.132,0,0,1,1.938,3.26,7.542,7.542,0,0,1,.287,1.235h4.12a.656.656,0,0,0,.656-.656,4.929,4.929,0,0,0-4.924-4.924Z" stroke="none"/>
          <path d="M 22.35964012145996 19.17428398132324 C 22.84053039550781 19.91425514221191 23.22061538696289 20.7197437286377 23.48291015625 21.56218719482422 C 23.50297927856445 21.62455368041992 23.52237510681152 21.68717002868652 23.54110145568848 21.75005722045898 L 25.50966262817383 21.75005722045898 C 25.14430999755859 20.32283401489258 23.88018989562988 19.25005912780762 22.35964012145996 19.17428398132324 M 22.19256210327148 17.66999816894531 C 24.91057205200195 17.67288780212402 27.11324119567871 19.87555694580078 27.11614036560059 22.59357833862305 C 27.11614036560059 22.95614814758301 26.82222175598145 23.25005722045898 26.45966148376465 23.25005722045898 L 22.33960151672363 23.25005722045898 C 22.27884101867676 22.83089828491211 22.18288040161133 22.4176082611084 22.05273056030273 22.01456832885742 C 21.67271041870117 20.79033851623535 21.00868034362793 19.67326736450195 20.11480140686035 18.75449752807617 C 19.9802303314209 18.61663818359375 19.83645057678223 18.49124717712402 19.69400215148926 18.3638973236084 C 20.44966125488281 17.9129581451416 21.31258201599121 17.67330741882324 22.19256210327148 17.66999816894531 Z" stroke="none" fill="#fff"/>
        </g>
      </g>
    </g>
  </g>
</svg>
