<svg xmlns="http://www.w3.org/2000/svg" width="15.836" height="16.967" viewBox="0 0 15.836 16.967">
  <g id="unselectedlia" transform="translate(-67 -95)">
    <g id="user_34_" data-name="user (34)" transform="translate(51 95)">
      <g id="Group_64651" data-name="Group 64651" transform="translate(16)">
        <g id="Path_155793" data-name="Path 155793" transform="translate(-16)" fill="none">
          <path d="M29.108,11.434l-2.474-.5a.566.566,0,0,1-.454-.554V9.816a6.531,6.531,0,0,0,.474-.844,4.9,4.9,0,0,1,.385-.683,3.655,3.655,0,0,0,1.147-1.811,1.693,1.693,0,0,0-.164-1.328,9.99,9.99,0,0,0-.192-2.3,2.5,2.5,0,0,0-.587-1.822,1.754,1.754,0,0,0-1.05-.44A1.82,1.82,0,0,1,25.809.5,3.98,3.98,0,0,0,23.9,0a4.448,4.448,0,0,0-3.939,2.706A6.645,6.645,0,0,0,19.8,4.753l-.016.4a1.8,1.8,0,0,0-.143,1.327,3.642,3.642,0,0,0,1.145,1.811,4.984,4.984,0,0,1,.389.687,6.864,6.864,0,0,0,.477.843v.567a.566.566,0,0,1-.455.554l-2.474.5A3.4,3.4,0,0,0,16,14.76v1.076a1.133,1.133,0,0,0,1.131,1.131H30.7a1.133,1.133,0,0,0,1.131-1.131V14.76A3.4,3.4,0,0,0,29.108,11.434Z" stroke="none"/>
          <path d="M 30.33590316772461 15.46704006195068 L 30.33590316772461 14.76019096374512 C 30.33590316772461 13.86093044281006 29.69586372375488 13.08050060272217 28.81304359436035 12.90431022644043 L 26.3420238494873 12.40944004058838 C 25.37911415100098 12.21848011016846 24.68022346496582 11.36659049987793 24.68022346496582 10.38383007049561 L 24.68022346496582 9.332170486450195 L 24.96293258666992 8.939530372619629 C 25.05982398986816 8.804960250854492 25.20047378540039 8.524660110473633 25.3134937286377 8.299430847167969 L 25.31909370422363 8.288360595703125 C 25.59238433837891 7.749420642852783 25.74438285827637 7.471300601959229 25.95669364929199 7.250150680541992 L 25.98952293395996 7.217010498046875 C 26.3070240020752 6.906230449676514 26.64169311523438 6.539500713348389 26.71646308898926 6.175950527191162 C 26.7462272644043 6.031164646148682 26.74463653564453 5.958820343017578 26.74300384521484 5.936860084533691 C 26.73978805541992 5.930473327636719 26.73403167724609 5.919641017913818 26.72417259216309 5.902640342712402 L 26.52171325683594 5.553580284118652 L 26.52171325683594 5.150060653686523 C 26.52171325683594 4.705010414123535 26.52171325683594 3.778920412063599 26.37895393371582 3.237280607223511 L 26.33365440368652 3.065410614013672 L 26.32978439331055 2.887720584869385 C 26.31911087036133 2.39880895614624 26.25949287414551 2.21771502494812 26.19645309448242 2.120690107345581 C 26.12430191040039 2.102615833282471 26.01486968994141 2.084010601043701 25.9439640045166 2.07196044921875 C 25.62403297424316 2.018170595169067 25.35819435119629 1.965540528297424 25.09259414672852 1.821110486984253 L 25.08332443237305 1.816020488739014 C 24.71664810180664 1.613252878189087 24.36269187927246 1.518030166625977 23.90810012817383 1.501055121421814 C 22.93568229675293 1.556101083755493 21.73302459716797 2.203429222106934 21.36871337890625 3.215030431747437 C 21.27761268615723 3.469670534133911 21.29494285583496 4.339430332183838 21.30234336853027 4.710840702056885 L 21.3034839630127 4.76801061630249 L 21.27279281616211 5.53726053237915 L 21.12439346313477 5.829400539398193 C 21.08307266235352 5.910740375518799 21.06596374511719 5.94441032409668 21.11403274536133 6.176000595092773 C 21.18869400024414 6.540640354156494 21.52210426330566 6.906250476837158 21.83840370178223 7.215800285339355 L 21.87107276916504 7.248780727386475 C 22.08164405822754 7.468020439147949 22.23300361633301 7.742730617523193 22.50536346435547 8.274910926818848 L 22.51848411560059 8.30056095123291 C 22.64617347717285 8.550540924072266 22.77819442749023 8.809030532836914 22.87297439575195 8.94066047668457 L 23.15568351745605 9.333300590515137 L 23.15568351745605 10.38383007049561 C 23.15568351745605 11.36731052398682 22.45578384399414 12.21930027008057 21.49552345275879 12.40887069702148 L 19.02094268798828 12.90447044372559 C 18.1396541595459 13.08048057556152 17.50000381469727 13.86092090606689 17.50000381469727 14.76019096374512 L 17.50000381469727 15.46704006195068 L 30.33590316772461 15.46704006195068 M 30.70477294921875 16.967041015625 L 17.13113403320312 16.967041015625 C 16.50788307189941 16.967041015625 16.00000381469727 16.45915985107422 16.00000381469727 15.83591079711914 L 16.00000381469727 14.76019096374512 C 16.00000381469727 13.14833068847656 17.14697265625 11.74911022186279 18.7271728515625 11.43352031707764 L 21.20096397399902 10.93808078765869 C 21.46451377868652 10.8860502243042 21.65568351745605 10.65304088592529 21.65568351745605 10.38383007049561 L 21.65568351745605 9.817130088806152 C 21.49279403686523 9.590900421142578 21.33896255493164 9.288890838623047 21.17834281921387 8.974430084228516 C 21.05617332458496 8.735760688781738 20.87180328369141 8.373800277709961 20.78923416137695 8.287830352783203 C 20.31189346313477 7.820670604705811 19.80062294006348 7.239270687103271 19.64452362060547 6.476880550384521 C 19.50199317932129 5.790280342102051 19.64339256286621 5.432850360870361 19.78704261779785 5.150060653686523 L 19.80288314819336 4.753030300140381 C 19.78930282592773 4.070960521697998 19.77121353149414 3.222610473632812 19.95784378051758 2.70568060874939 C 20.5709228515625 1.003320455551147 22.40336418151855 0.05656050890684128 23.89646339416504 5.078125013824319e-07 C 24.62604331970215 0.01810050755739212 25.22215270996094 0.1787205040454865 25.80921363830566 0.5033605098724365 C 25.87368392944336 0.5384204983711243 26.05806350708008 0.5700905323028564 26.19266319274902 0.5927205085754395 C 26.53201293945312 0.6504005193710327 26.95505332946777 0.7228004932403564 27.24236297607422 1.032730460166931 C 27.6484432220459 1.476130485534668 27.81019401550293 1.973830461502075 27.82942390441895 2.854990482330322 C 28.02171325683594 3.584570407867432 28.02171325683594 4.596940517425537 28.02171325683594 5.150060653686523 C 28.18573379516602 5.432850360870361 28.32712364196777 5.790290355682373 28.18573379516602 6.478020668029785 C 28.02963256835938 7.237010478973389 27.51835441589355 7.819540500640869 27.03875350952148 8.288970947265625 C 26.95731353759766 8.373800277709961 26.77520370483398 8.733500480651855 26.65417289733887 8.972170829772949 C 26.49581336975098 9.287760734558105 26.34311294555664 9.589770317077637 26.18022346496582 9.816000938415527 L 26.18022346496582 10.38383007049561 C 26.18022346496582 10.65304088592529 26.37138366699219 10.8860502243042 26.63380432128906 10.93809032440186 L 29.10760307312012 11.43352031707764 C 30.68893432617188 11.74911022186279 31.83590316772461 13.14833068847656 31.83590316772461 14.76019096374512 L 31.83590316772461 15.83591079711914 C 31.83590316772461 16.45915985107422 31.32802391052246 16.967041015625 30.70477294921875 16.967041015625 Z" stroke="none" fill="#fff"/>
        </g>
      </g>
    </g>
  </g>
</svg>
