<svg xmlns="http://www.w3.org/2000/svg" width="32" height="32" viewBox="0 0 32 32">
  <g id="visa2" transform="translate(-1061 -222)">
    <rect id="Rectangle_4403" data-name="Rectangle 4403" width="32" height="32" rx="8" transform="translate(1061 222)" fill="#fff"/>
    <g id="passport" transform="translate(1006 227.999)">
      <g id="Group_13449" data-name="Group 13449" transform="translate(64 0.001)">
        <g id="Group_13448" data-name="Group 13448" transform="translate(0)">
          <path id="Path_155754" data-name="Path 155754" d="M225.6,259.169c.454,0,1.092-1.227,1.172-3.168h-2.345C224.507,257.942,225.146,259.169,225.6,259.169Z" transform="translate(-218.47 -246.496)" fill="#e68df3"/>
          <path id="Path_155755" data-name="Path 155755" d="M161.078,159.234h1.552a7.363,7.363,0,0,1,.653-2.909A3.557,3.557,0,0,0,161.078,159.234Z" transform="translate(-157.474 -150.521)" fill="#e68df3"/>
          <path id="Path_155756" data-name="Path 155756" d="M291.516,156.325a7.363,7.363,0,0,1,.653,2.909h1.552A3.557,3.557,0,0,0,291.516,156.325Z" transform="translate(-283.068 -150.521)" fill="#e68df3"/>
          <path id="Path_155757" data-name="Path 155757" d="M225.6,149.334c-.454,0-1.092,1.227-1.172,3.168h2.345C226.691,150.561,226.053,149.334,225.6,149.334Z" transform="translate(-218.47 -143.789)" fill="#e68df3"/>
          <path id="Path_155758" data-name="Path 155758" d="M161.078,256a3.557,3.557,0,0,0,2.206,2.909A7.363,7.363,0,0,1,162.63,256Z" transform="translate(-157.474 -246.496)" fill="#e68df3"/>
          <path id="Path_155759" data-name="Path 155759" d="M76.674,2.377h-.792V1.557A1.557,1.557,0,0,0,73.943.049L65.494,2.386A1.582,1.582,0,0,0,64,3.961V17.427a1.586,1.586,0,0,0,1.584,1.584H76.674a1.586,1.586,0,0,0,1.584-1.584V3.961A1.586,1.586,0,0,0,76.674,2.377ZM74.147.815a.774.774,0,0,1,.943.743v.819H68.5Zm-1.038,15.82H68.753a.4.4,0,0,1,0-.792h4.357a.4.4,0,0,1,0,.792Zm1.584-1.584H67.168a.4.4,0,1,1,0-.792h7.525a.4.4,0,0,1,0,.792Zm-3.564-1.585A4.356,4.356,0,1,1,75.485,9.11,4.361,4.361,0,0,1,71.129,13.466Z" transform="translate(-64 -0.001)" fill="#e68df3"/>
          <path id="Path_155760" data-name="Path 155760" d="M291.516,258.91A3.557,3.557,0,0,0,293.722,256h-1.552A7.363,7.363,0,0,1,291.516,258.91Z" transform="translate(-283.068 -246.496)" fill="#e68df3"/>
        </g>
      </g>
    </g>
  </g>
</svg>
